<svg width="81" height="81" viewBox="0 0 81 81" fill="none" xmlns="http://www.w3.org/2000/svg">
<path d="M8.98042 68.2839C2.44565 61.2351 -0.283448 50.8289 0.396152 41.2594C1.1821 31.6892 5.37675 22.9557 11.8132 15.4966C18.2497 8.03752 26.8225 1.96109 36.8097 0.603803C46.9026 -0.861671 58.1972 2.39344 66.4356 9.75313C74.674 17.1129 79.7491 28.4703 80.2553 40.3961C80.7614 52.3219 76.8042 64.708 68.664 71.8561C60.5246 79.1118 48.3079 81.0215 37.0286 80.0232C25.8563 79.1317 15.5152 75.3328 8.98042 68.2839Z" fill="#EAC5FF" fill-opacity="0.25"/>
<path d="M64.2492 58.0133H55.4993C49.9855 58.0133 45.4995 53.5273 45.4995 48.0135C45.4995 42.4996 49.9855 38.0137 55.4993 38.0137H64.2492C64.9402 38.0137 65.4993 37.4546 65.4993 36.7636V33.0137C65.4993 30.3925 63.4661 28.2608 60.8973 28.0541L53.7185 15.5152C53.0532 14.3555 51.979 13.5267 50.6936 13.1825C49.4142 12.8407 48.0765 13.0202 46.9314 13.6866L22.3221 28.0138H18C15.2425 28.0138 13 30.2561 13 33.0137V63.0132C13 65.7707 15.2423 68.0132 18 68.0132H60.4993C63.2568 68.0132 65.4993 65.7708 65.4993 63.0132V59.2633C65.4993 58.5724 64.9402 58.0133 64.2492 58.0133ZM55.2687 23.2565L57.9924 28.0138H47.0975L55.2687 23.2565ZM27.2908 28.0138L48.1899 15.8472C48.7551 15.5164 49.4154 15.4285 50.0466 15.597C50.685 15.7679 51.2173 16.1805 51.5481 16.7578L51.5507 16.7624L32.2256 28.0138H27.2908Z" fill="#5D4496"/>
<path d="M64.2498 40.5137H55.4999C51.3642 40.5137 48 43.8778 48 48.0136C48 52.1493 51.3642 55.5134 55.4999 55.5134H64.2498C66.3176 55.5134 67.9997 53.8314 67.9997 51.7635V44.2636C67.9997 42.1958 66.3176 40.5137 64.2498 40.5137ZM55.4999 50.5135C54.1218 50.5135 53 49.3917 53 48.0136C53 46.6355 54.1218 45.5136 55.4999 45.5136C56.878 45.5136 57.9998 46.6355 57.9998 48.0136C57.9999 49.3917 56.8781 50.5135 55.4999 50.5135Z" fill="#5D4496"/>
</svg>
