<svg width="79" height="79" viewBox="0 0 79 79" fill="none" xmlns="http://www.w3.org/2000/svg">
<path d="M8.80883 66.9662C2.40022 60.0535 -0.276192 49.8482 0.390292 40.4635C1.16106 31.078 5.27473 22.5131 11.587 15.1981C17.8992 7.88297 26.3065 1.92386 36.1009 0.592777C45.9989 -0.844406 57.0754 2.34786 65.1548 9.56546C73.2341 16.7831 78.2113 27.9213 78.7076 39.6169C79.204 51.3125 75.3232 63.4593 67.3402 70.4695C59.3579 77.5851 47.3771 79.4579 36.3155 78.4789C25.359 77.6045 15.2174 73.879 8.80883 66.9662Z" fill="#EAC5FF" fill-opacity="0.25"/>
<path d="M52.3602 12.4394C52.3455 12.4101 52.3162 12.3955 52.287 12.4101L49.8996 12.9667C44.6856 14.1676 39.2812 14.3141 34.0086 13.406L26.9053 12.1904C26.8906 12.1904 26.876 12.1904 26.8467 12.2197C26.832 12.249 26.832 12.2636 26.832 12.2783L34.6091 25.2255C34.7263 25.4012 34.7849 25.5916 34.8142 25.7967C35.2535 25.6941 35.6783 25.5916 36.1177 25.5184L33.8915 18.5175C33.8768 18.5029 33.8768 18.5029 33.8768 18.4882C33.6425 17.712 34.0672 16.8918 34.8435 16.6575C35.6197 16.4231 36.4399 16.8479 36.6742 17.6241L39.0908 25.2108C39.2812 25.1962 39.4863 25.1962 39.6767 25.1962C39.9549 25.1962 40.2332 25.1962 40.5115 25.2108C40.5115 25.0643 40.5115 24.9179 40.5554 24.7714L41.7564 19.9821C41.9468 19.2059 42.7523 18.7372 43.5286 18.9276C44.3048 19.118 44.7882 19.9089 44.5831 20.6998L43.3675 25.4744C43.3675 25.5037 43.3528 25.5184 43.3528 25.533C43.7043 25.6063 44.0559 25.6795 44.4074 25.7674C44.4366 25.6502 44.4952 25.533 44.5538 25.4305L52.3748 12.4833C52.3748 12.4687 52.3748 12.4687 52.3602 12.4394Z" fill="#5D4496"/>
<path d="M56.5657 44.0457C56.1117 36.6494 50.927 30.4101 43.7357 28.6233C42.7398 28.3743 41.7146 28.2132 40.6893 28.1546C31.3597 27.5981 23.3483 34.7161 22.7918 44.0457L21.4297 67.2744H57.9278L56.5657 44.0457ZM42.5933 40.3109C42.9888 41.0432 43.267 41.6291 43.4428 42.3614H45.4054C46.2109 42.3614 46.87 43.0205 46.87 43.826C46.87 44.6315 46.2109 45.2906 45.4054 45.2906H43.4428C43.1792 46.4476 42.5933 47.5022 41.7438 48.337C40.6454 49.4501 39.1808 50.1092 37.6283 50.197L43.1645 55.4257C43.7357 55.9676 43.765 56.8903 43.2231 57.4762C42.6665 58.062 41.7438 58.1059 41.1434 57.5494L32.9562 49.8309C32.6633 49.5526 32.4875 49.1572 32.5021 48.7471C32.5168 47.9562 33.1759 47.3411 33.9668 47.3557H37.2475C38.1555 47.3557 39.0343 46.9749 39.6787 46.3158C39.957 46.0083 40.1767 45.6714 40.3671 45.3052H33.9668C33.1612 45.3052 32.5021 44.6462 32.5021 43.8406C32.5021 43.0351 33.1612 42.376 33.9668 42.376H40.3671C39.8106 41.2043 38.6242 40.3256 37.2475 40.3256H33.9668C33.1612 40.3256 32.5021 39.6665 32.5021 38.861C32.5021 38.0554 33.1612 37.3963 33.9668 37.3963H45.4054C46.2109 37.3963 46.87 38.0554 46.87 38.861C46.87 39.6665 46.2109 40.3256 45.4054 40.3256V40.3109H42.5933Z" fill="#5D4496"/>
</svg>
