<svg width="80" height="80" viewBox="0 0 80 80" fill="none" xmlns="http://www.w3.org/2000/svg">
<path d="M8.80868 66.9803C2.39871 60.0661 -0.278264 49.8587 0.38836 40.472C1.15929 31.0845 5.27383 22.5178 11.5874 15.2012C17.901 7.88459 26.3101 1.92421 36.1066 0.592846C46.0066 -0.844634 57.0855 2.3483 65.1666 9.56743C73.2476 16.7865 78.2258 27.9271 78.7223 39.6252C79.2188 51.3232 75.3371 63.4726 67.3525 70.4843C59.3685 77.6014 47.3851 79.4746 36.3212 78.4954C25.3623 77.6208 15.2187 73.8945 8.80868 66.9803Z" fill="#EAC5FF" fill-opacity="0.25"/>
<path d="M63.155 20.6141C53.7699 20.6141 46.5802 17.9328 40.5002 12.0205C34.421 17.9328 27.2316 20.6141 17.8473 20.6141C17.8473 36.0095 14.6616 58.0646 40.5002 67.0205C66.3406 58.0644 63.155 36.0095 63.155 20.6141Z" fill="#5D4496"/>
</svg>
